<svg width="151" height="30" viewBox="0 0 151 30" fill="none" xmlns="http://www.w3.org/2000/svg">
<path d="M13.6617 2.92705C13.961 2.00574 15.2644 2.00574 15.5638 2.92705L17.669 9.40616C17.8029 9.81819 18.1868 10.0971 18.62 10.0971H25.4326C26.4013 10.0971 26.8041 11.3368 26.0204 11.9062L20.5089 15.9105C20.1584 16.1651 20.0118 16.6165 20.1456 17.0285L22.2508 23.5076C22.5502 24.4289 21.4957 25.1951 20.712 24.6257L15.2005 20.6213C14.85 20.3667 14.3754 20.3667 14.0249 20.6213L8.51348 24.6257C7.72977 25.1951 6.67529 24.4289 6.97464 23.5076L9.07983 17.0285C9.2137 16.6165 9.06705 16.1651 8.71656 15.9105L3.2051 11.9062C2.42138 11.3368 2.82416 10.0971 3.79288 10.0971H10.6054C11.0386 10.0971 11.4226 9.81819 11.5565 9.40616L13.6617 2.92705Z" fill="#450AFF"/>
<path d="M43.887 2.92705C44.1864 2.00574 45.4898 2.00574 45.7891 2.92705L47.8943 9.40616C48.0282 9.81819 48.4121 10.0971 48.8454 10.0971H55.6579C56.6266 10.0971 57.0294 11.3368 56.2457 11.9062L50.7342 15.9105C50.3838 16.1651 50.2371 16.6165 50.371 17.0285L52.4762 23.5076C52.7755 24.4289 51.721 25.1951 50.9373 24.6257L45.4259 20.6213C45.0754 20.3667 44.6008 20.3667 44.2503 20.6213L38.7388 24.6257C37.9551 25.1951 36.9006 24.4289 37.2 23.5076L39.3052 17.0285C39.439 16.6165 39.2924 16.1651 38.9419 15.9105L33.4304 11.9062C32.6467 11.3368 33.0495 10.0971 34.0182 10.0971H40.8308C41.264 10.0971 41.6479 9.81819 41.7818 9.40616L43.887 2.92705Z" fill="#450AFF"/>
<path d="M74.1124 2.92705C74.4117 2.00574 75.7151 2.00574 76.0145 2.92705L78.1197 9.40616C78.2535 9.81819 78.6375 10.0971 79.0707 10.0971H85.8833C86.852 10.0971 87.2548 11.3368 86.471 11.9062L80.9596 15.9105C80.6091 16.1651 80.4624 16.6165 80.5963 17.0285L82.7015 23.5076C83.0009 24.4289 81.9464 25.1951 81.1627 24.6257L75.6512 20.6213C75.3007 20.3667 74.8261 20.3667 74.4756 20.6213L68.9642 24.6257C68.1805 25.1951 67.126 24.4289 67.4253 23.5076L69.5305 17.0285C69.6644 16.6165 69.5177 16.1651 69.1672 15.9105L63.6558 11.9062C62.8721 11.3368 63.2748 10.0971 64.2436 10.0971H71.0561C71.4893 10.0971 71.8733 9.81819 72.0072 9.40616L74.1124 2.92705Z" fill="#450AFF"/>
<path d="M104.338 2.92705C104.637 2.00574 105.94 2.00574 106.24 2.92705L108.345 9.40616C108.479 9.81819 108.863 10.0971 109.296 10.0971H116.109C117.077 10.0971 117.48 11.3368 116.696 11.9062L111.185 15.9105C110.834 16.1651 110.688 16.6165 110.822 17.0285L112.927 23.5076C113.226 24.4289 112.172 25.1951 111.388 24.6257L105.877 20.6213C105.526 20.3667 105.051 20.3667 104.701 20.6213L99.1895 24.6257C98.4058 25.1951 97.3513 24.4289 97.6507 23.5076L99.7559 17.0285C99.8897 16.6165 99.7431 16.1651 99.3926 15.9105L93.8811 11.9062C93.0974 11.3368 93.5002 10.0971 94.4689 10.0971H101.281C101.715 10.0971 102.099 9.81819 102.233 9.40616L104.338 2.92705Z" fill="#450AFF"/>
<path d="M134.563 2.92705C134.862 2.00574 136.166 2.00574 136.465 2.92705L138.57 9.40616C138.704 9.81819 139.088 10.0971 139.521 10.0971H146.334C147.303 10.0971 147.705 11.3368 146.922 11.9062L141.41 15.9105C141.06 16.1651 140.913 16.6165 141.047 17.0285L143.152 23.5076C143.452 24.4289 142.397 25.1951 141.613 24.6257L136.102 20.6213C135.751 20.3667 135.277 20.3667 134.926 20.6213L129.415 24.6257C128.631 25.1951 127.577 24.4289 127.876 23.5076L129.981 17.0285C130.115 16.6165 129.968 16.1651 129.618 15.9105L124.106 11.9062C123.323 11.3368 123.726 10.0971 124.694 10.0971H131.507C131.94 10.0971 132.324 9.81819 132.458 9.40616L134.563 2.92705Z" fill="#450AFF"/>
</svg>
