<svg width="1600" height="314" viewBox="0 0 1600 314" fill="none" xmlns="http://www.w3.org/2000/svg">
<path d="M-571 90.171L1554.36 90.171C1554.36 90.171 1798.5 197.659 1540.95 289.702C1283.4 381.744 974.673 176.139 542.381 266.129C110.089 356.12 -571 90.171 -571 90.171Z" fill="#C1CFFF" fill-opacity="0.67"/>
<path d="M1980.5 44L11.0694 44C11.0694 44 -215.156 141.598 23.5 225.171C262.156 308.744 298.5 124.297 978.5 225.171C1658.5 326.045 1980.5 44 1980.5 44Z" fill="#A3ACFF"/>
<path d="M1980.5 4.60326e-06L11.0694 0C11.0694 0 -215.156 97.2365 23.5 180.5C262.156 263.763 298.5 80 978.5 180.5C1658.5 281 1980.5 4.60326e-06 1980.5 4.60326e-06Z" fill="#161220"/>
</svg>
